<?xml version="1.0" encoding="UTF-8"?>
<svg version="1.1" xmlns="http://www.w3.org/2000/svg" width="512" height="512">
<path d="M0 0 C1.36321832 -0.00657338 1.36321832 -0.00657338 2.7539764 -0.01327956 C5.8122284 -0.02667917 8.87045158 -0.03284913 11.9287262 -0.03897095 C14.1165683 -0.04687121 16.30440911 -0.05514012 18.49224854 -0.06375122 C25.69054416 -0.08998761 32.88884563 -0.10528393 40.08717346 -0.11953735 C42.56552191 -0.12489702 45.04387033 -0.13027453 47.5222187 -0.13566971 C57.83435658 -0.15730387 68.14649289 -0.17603902 78.45864773 -0.1872921 C81.13454632 -0.19022163 83.81044488 -0.19318331 86.48634338 -0.19619751 C87.4839236 -0.19731659 87.4839236 -0.19731659 88.50165696 -0.19845827 C99.26020711 -0.21109505 110.01859137 -0.24429521 120.77706408 -0.28599934 C131.83326118 -0.32850447 142.88936923 -0.35159018 153.94564682 -0.35721266 C160.148927 -0.36086197 166.35192621 -0.3728385 172.5551281 -0.4053154 C178.39679643 -0.4354597 184.23801475 -0.44168487 190.07974434 -0.42993164 C192.21781214 -0.42971142 194.35590121 -0.43797367 196.49389648 -0.45558548 C211.94894998 -0.5759115 223.39563 0.41162955 235.02467346 11.7046814 C245.93290601 23.89623542 246.66165696 37.56922416 246.59703064 53.18270874 C246.60049113 55.00752733 246.60525831 56.83234383 246.61121237 58.65715599 C246.62369822 63.65061938 246.61756297 68.64391004 246.60825372 73.63737392 C246.60145368 79.03077279 246.6119492 84.42414239 246.62019348 89.8175354 C246.63352279 100.37491227 246.63065663 110.93222511 246.62195556 121.48960447 C246.61517628 130.07096602 246.61426336 138.65230964 246.61752701 147.2336731 C246.61798671 148.45571642 246.61844641 149.67775975 246.61892004 150.93683469 C246.61987923 153.41950878 246.62085187 155.90218286 246.62183781 158.38485694 C246.63038936 181.65667742 246.62056125 204.92846243 246.60443671 228.20027709 C246.59103375 248.16204941 246.59336191 268.12376939 246.60719299 288.08554077 C246.62325294 311.27494735 246.6295654 334.46432285 246.6203562 357.65373421 C246.61940057 360.12719853 246.61845746 362.60066286 246.61752701 365.0741272 C246.61706418 366.29107124 246.61660135 367.50801528 246.6161245 368.76183641 C246.61353587 377.33139504 246.6179029 385.90093393 246.62496567 394.4704895 C246.63338546 404.91604408 246.63109039 415.36153104 246.61512344 425.80707788 C246.60724724 431.13500597 246.60413811 436.46282138 246.61407089 441.7907486 C246.62303165 446.67114611 246.6180621 451.55132682 246.60213824 456.43170476 C246.5987963 458.19400737 246.60047124 459.95632842 246.6077656 461.71861911 C246.66677569 477.16404842 244.78009134 490.01563355 234.09107971 501.90390015 C226.38036582 509.19968773 216.77058044 512.30177908 206.43215942 512.30780029 C205.0689411 512.31437367 205.0689411 512.31437367 203.67818302 512.32107985 C200.61993102 512.33447946 197.56170785 512.34064942 194.50343323 512.34677124 C192.31559112 512.35467151 190.12775031 512.36294041 187.93991089 512.37155151 C180.74161527 512.3977879 173.54331379 512.41308422 166.34498596 512.42733765 C163.86663751 512.43269731 161.3882891 512.43807482 158.90994072 512.44347 C148.59780284 512.46510416 138.28566653 512.48383932 127.9735117 512.49509239 C125.2976131 512.49802193 122.62171454 512.5009836 119.94581604 512.5039978 C118.94823582 512.50511688 118.94823582 512.50511688 117.93050247 512.50625856 C107.17195231 512.51889534 96.41356806 512.5520955 85.65509535 512.59379964 C74.59889824 512.63630476 63.54279019 512.65939047 52.4865126 512.66501296 C46.28323242 512.66866226 40.08023322 512.6806388 33.87703133 512.71311569 C28.03536299 512.74325999 22.19414467 512.74948516 16.35241508 512.73773193 C14.21434728 512.73751171 12.07625822 512.74577397 9.93826294 512.76338577 C-5.51679056 512.88371179 -16.96347057 511.89617074 -28.59251404 500.6031189 C-39.50074658 488.41156488 -40.22949753 474.73857613 -40.16487122 459.12509155 C-40.16833171 457.30027296 -40.17309889 455.47545646 -40.17905295 453.6506443 C-40.1915388 448.65718091 -40.18540354 443.66389025 -40.17609429 438.67042637 C-40.16929425 433.2770275 -40.17978977 427.88365791 -40.18803406 422.49026489 C-40.20136337 411.93288802 -40.1984972 401.37557519 -40.18979613 390.81819582 C-40.18301686 382.23683427 -40.18210393 373.65549065 -40.18536758 365.0741272 C-40.18582728 363.85208387 -40.18628698 362.63004054 -40.18676061 361.3709656 C-40.1877198 358.88829151 -40.18869244 356.40561743 -40.18967839 353.92294335 C-40.19822993 330.65112287 -40.18840183 307.37933787 -40.17227729 284.1075232 C-40.15887433 264.14575088 -40.16120249 244.1840309 -40.17503357 224.22225952 C-40.19109352 201.03285295 -40.19740598 177.84347745 -40.18819678 154.65406609 C-40.18724115 152.18060176 -40.18629803 149.70713743 -40.18536758 147.2336731 C-40.18490476 146.01672906 -40.18444193 144.79978502 -40.18396508 143.54596388 C-40.18137644 134.97640525 -40.18574348 126.40686636 -40.19280624 117.83731079 C-40.20122604 107.39175621 -40.19893097 96.94626926 -40.18296401 86.50072241 C-40.17508781 81.17279432 -40.17197869 75.84497892 -40.18191147 70.5170517 C-40.19087222 65.63665418 -40.18590267 60.75647347 -40.16997881 55.87609553 C-40.16663687 54.11379292 -40.16831182 52.35147187 -40.17560618 50.58918118 C-40.23461627 35.14375187 -38.34793192 22.29216674 -27.65892029 10.40390015 C-19.9482064 3.10811256 -10.33842101 0.00602122 0 0 Z " fill="#FEFEFE" transform="translate(152.78392028808594,-0.153900146484375)"/>
<path d="M0 0 C1.36321832 -0.00657338 1.36321832 -0.00657338 2.7539764 -0.01327956 C5.8122284 -0.02667917 8.87045158 -0.03284913 11.9287262 -0.03897095 C14.1165683 -0.04687121 16.30440911 -0.05514012 18.49224854 -0.06375122 C25.69054416 -0.08998761 32.88884563 -0.10528393 40.08717346 -0.11953735 C42.56552191 -0.12489702 45.04387033 -0.13027453 47.5222187 -0.13566971 C57.83435658 -0.15730387 68.14649289 -0.17603902 78.45864773 -0.1872921 C81.13454632 -0.19022163 83.81044488 -0.19318331 86.48634338 -0.19619751 C87.4839236 -0.19731659 87.4839236 -0.19731659 88.50165696 -0.19845827 C99.26020711 -0.21109505 110.01859137 -0.24429521 120.77706408 -0.28599934 C131.83326118 -0.32850447 142.88936923 -0.35159018 153.94564682 -0.35721266 C160.148927 -0.36086197 166.35192621 -0.3728385 172.5551281 -0.4053154 C178.39679643 -0.4354597 184.23801475 -0.44168487 190.07974434 -0.42993164 C192.21781214 -0.42971142 194.35590121 -0.43797367 196.49389648 -0.45558548 C211.94894998 -0.5759115 223.39563 0.41162955 235.02467346 11.7046814 C245.93290601 23.89623542 246.66165696 37.56922416 246.59703064 53.18270874 C246.60049113 55.00752733 246.60525831 56.83234383 246.61121237 58.65715599 C246.62369822 63.65061938 246.61756297 68.64391004 246.60825372 73.63737392 C246.60145368 79.03077279 246.6119492 84.42414239 246.62019348 89.8175354 C246.63352279 100.37491227 246.63065663 110.93222511 246.62195556 121.48960447 C246.61517628 130.07096602 246.61426336 138.65230964 246.61752701 147.2336731 C246.61798671 148.45571642 246.61844641 149.67775975 246.61892004 150.93683469 C246.61987923 153.41950878 246.62085187 155.90218286 246.62183781 158.38485694 C246.63038936 181.65667742 246.62056125 204.92846243 246.60443671 228.20027709 C246.59103375 248.16204941 246.59336191 268.12376939 246.60719299 288.08554077 C246.62325294 311.27494735 246.6295654 334.46432285 246.6203562 357.65373421 C246.61940057 360.12719853 246.61845746 362.60066286 246.61752701 365.0741272 C246.61706418 366.29107124 246.61660135 367.50801528 246.6161245 368.76183641 C246.61353587 377.33139504 246.6179029 385.90093393 246.62496567 394.4704895 C246.63338546 404.91604408 246.63109039 415.36153104 246.61512344 425.80707788 C246.60724724 431.13500597 246.60413811 436.46282138 246.61407089 441.7907486 C246.62303165 446.67114611 246.6180621 451.55132682 246.60213824 456.43170476 C246.5987963 458.19400737 246.60047124 459.95632842 246.6077656 461.71861911 C246.66677569 477.16404842 244.78009134 490.01563355 234.09107971 501.90390015 C226.38036582 509.19968773 216.77058044 512.30177908 206.43215942 512.30780029 C205.0689411 512.31437367 205.0689411 512.31437367 203.67818302 512.32107985 C200.61993102 512.33447946 197.56170785 512.34064942 194.50343323 512.34677124 C192.31559112 512.35467151 190.12775031 512.36294041 187.93991089 512.37155151 C180.74161527 512.3977879 173.54331379 512.41308422 166.34498596 512.42733765 C163.86663751 512.43269731 161.3882891 512.43807482 158.90994072 512.44347 C148.59780284 512.46510416 138.28566653 512.48383932 127.9735117 512.49509239 C125.2976131 512.49802193 122.62171454 512.5009836 119.94581604 512.5039978 C118.94823582 512.50511688 118.94823582 512.50511688 117.93050247 512.50625856 C107.17195231 512.51889534 96.41356806 512.5520955 85.65509535 512.59379964 C74.59889824 512.63630476 63.54279019 512.65939047 52.4865126 512.66501296 C46.28323242 512.66866226 40.08023322 512.6806388 33.87703133 512.71311569 C28.03536299 512.74325999 22.19414467 512.74948516 16.35241508 512.73773193 C14.21434728 512.73751171 12.07625822 512.74577397 9.93826294 512.76338577 C-5.51679056 512.88371179 -16.96347057 511.89617074 -28.59251404 500.6031189 C-39.50074658 488.41156488 -40.22949753 474.73857613 -40.16487122 459.12509155 C-40.16833171 457.30027296 -40.17309889 455.47545646 -40.17905295 453.6506443 C-40.1915388 448.65718091 -40.18540354 443.66389025 -40.17609429 438.67042637 C-40.16929425 433.2770275 -40.17978977 427.88365791 -40.18803406 422.49026489 C-40.20136337 411.93288802 -40.1984972 401.37557519 -40.18979613 390.81819582 C-40.18301686 382.23683427 -40.18210393 373.65549065 -40.18536758 365.0741272 C-40.18582728 363.85208387 -40.18628698 362.63004054 -40.18676061 361.3709656 C-40.1877198 358.88829151 -40.18869244 356.40561743 -40.18967839 353.92294335 C-40.19822993 330.65112287 -40.18840183 307.37933787 -40.17227729 284.1075232 C-40.15887433 264.14575088 -40.16120249 244.1840309 -40.17503357 224.22225952 C-40.19109352 201.03285295 -40.19740598 177.84347745 -40.18819678 154.65406609 C-40.18724115 152.18060176 -40.18629803 149.70713743 -40.18536758 147.2336731 C-40.18490476 146.01672906 -40.18444193 144.79978502 -40.18396508 143.54596388 C-40.18137644 134.97640525 -40.18574348 126.40686636 -40.19280624 117.83731079 C-40.20122604 107.39175621 -40.19893097 96.94626926 -40.18296401 86.50072241 C-40.17508781 81.17279432 -40.17197869 75.84497892 -40.18191147 70.5170517 C-40.19087222 65.63665418 -40.18590267 60.75647347 -40.16997881 55.87609553 C-40.16663687 54.11379292 -40.16831182 52.35147187 -40.17560618 50.58918118 C-40.23461627 35.14375187 -38.34793192 22.29216674 -27.65892029 10.40390015 C-19.9482064 3.10811256 -10.33842101 0.00602122 0 0 Z M-19.78392029 41.15390015 C-19.78392029 174.14390015 -19.78392029 307.13390015 -19.78392029 444.15390015 C61.39607971 444.15390015 142.57607971 444.15390015 226.21607971 444.15390015 C226.21607971 311.16390015 226.21607971 178.17390015 226.21607971 41.15390015 C145.03607971 41.15390015 63.85607971 41.15390015 -19.78392029 41.15390015 Z " fill="#030303" transform="translate(152.78392028808594,-0.153900146484375)"/>
<path d="M0 0 C1.09503845 -0.01283524 2.1900769 -0.02567047 3.31829834 -0.03889465 C5.08708344 -0.04997505 5.08708344 -0.04997505 6.89160156 -0.0612793 C8.1099469 -0.06935104 9.32829224 -0.07742279 10.58355713 -0.08573914 C13.16246116 -0.09956817 15.7413834 -0.1102956 18.3203125 -0.11816406 C22.25328456 -0.13537142 26.18541481 -0.17926971 30.11816406 -0.22338867 C32.62597039 -0.23351647 35.13378386 -0.2420323 37.64160156 -0.2487793 C38.8126947 -0.26628738 39.98378784 -0.28379547 41.19036865 -0.30183411 C48.11514033 -0.28354409 52.67310518 0.38703775 58.53222656 4.17700195 C62.09244129 8.65009225 63.66604372 12.16770827 63.62988281 17.8449707 C63.62738525 18.6495874 63.6248877 19.4542041 63.62231445 20.28320312 C63.61321045 21.30003174 63.60410645 22.31686035 63.59472656 23.36450195 C63.57410156 26.60262695 63.55347656 29.84075195 63.53222656 33.17700195 C70.13222656 33.17700195 76.73222656 33.17700195 83.53222656 33.17700195 C83.88414062 34.97137695 84.23605469 36.76575195 84.59863281 38.61450195 C87.25337157 52.0632936 90.00015878 65.48109886 92.96972656 78.86450195 C95.53631321 90.44381079 97.963209 102.04553987 100.28222656 113.67700195 C100.42498016 114.39181732 100.56773376 115.10663269 100.71481323 115.84310913 C102.72817308 125.94145612 104.63438939 136.05520369 106.53222656 146.17700195 C51.09222656 146.17700195 -4.34777344 146.17700195 -61.46777344 146.17700195 C-59.22158977 131.57680811 -59.22158977 131.57680811 -57.98730469 126.13793945 C-57.71394287 124.9161499 -57.44058105 123.69436035 -57.15893555 122.43554688 C-56.86897705 121.15397705 -56.57901855 119.87240723 -56.28027344 118.55200195 C-53.66568387 106.85180493 -51.22164266 95.12721059 -48.90527344 83.36450195 C-46.54329584 71.37762722 -44.0428513 59.43720211 -41.33276367 47.5234375 C-41.10145752 46.50548096 -40.87015137 45.48752441 -40.63183594 44.4387207 C-40.43025879 43.56175537 -40.22868164 42.68479004 -40.02099609 41.78125 C-39.41539304 38.93042576 -38.94690424 36.05178674 -38.46777344 33.17700195 C-31.86777344 33.17700195 -25.26777344 33.17700195 -18.46777344 33.17700195 C-18.62479756 26.95458366 -18.62479756 26.95458366 -18.828125 20.73364258 C-18.90435452 14.68937937 -17.9170423 10.20604809 -14.46777344 5.17700195 C-9.87397891 0.69805229 -6.2411565 0.06387798 0 0 Z " fill="#0CA4DF" transform="translate(233.4677734375,86.822998046875)"/>
<path d="M0 0 C1.07121094 -0.00945648 2.14242187 -0.01891296 3.24609375 -0.02865601 C4.98052734 -0.01954697 4.98052734 -0.01954697 6.75 -0.01025391 C7.93722656 -0.01312408 9.12445313 -0.01599426 10.34765625 -0.01895142 C12.85937985 -0.02099417 15.37111928 -0.01544963 17.8828125 -0.00292969 C21.73473572 0.01311999 25.58560955 -0.00277228 29.4375 -0.02197266 C31.87500232 -0.01999026 34.31250399 -0.01614667 36.75 -0.01025391 C37.90628906 -0.0163266 39.06257813 -0.02239929 40.25390625 -0.02865601 C41.32511719 -0.01919952 42.39632812 -0.00974304 43.5 0 C44.91539062 0.00358017 44.91539062 0.00358017 46.359375 0.00723267 C48.75 0.38818359 48.75 0.38818359 51.75 3.38818359 C51.75 9.98818359 51.75 16.58818359 51.75 23.38818359 C31.95 23.38818359 12.15 23.38818359 -8.25 23.38818359 C-8.25 16.78818359 -8.25 10.18818359 -8.25 3.38818359 C-4.86469866 0.00288226 -4.49794581 0.01137736 0 0 Z " fill="#FAFAFA" transform="translate(234.25,96.61181640625)"/>
<path d="M0 0 C55.44 0 110.88 0 168 0 C168 2.64 168 5.28 168 8 C112.56 8 57.12 8 0 8 C0 5.36 0 2.72 0 0 Z " fill="#9B9B9B" transform="translate(172,386)"/>
<path d="M0 0 C55.44 0 110.88 0 168 0 C168 2.64 168 5.28 168 8 C112.56 8 57.12 8 0 8 C0 5.36 0 2.72 0 0 Z " fill="#9A9A9A" transform="translate(172,354)"/>
<path d="M0 0 C55.44 0 110.88 0 168 0 C168 2.64 168 5.28 168 8 C112.56 8 57.12 8 0 8 C0 5.36 0 2.72 0 0 Z " fill="#9E9E9E" transform="translate(172,322)"/>
<path d="M0 0 C2.09775542 1.20441471 3.77808217 2.4788557 5.5546875 4.1171875 C6.080625 4.59027344 6.6065625 5.06335938 7.1484375 5.55078125 C11.25745402 10.12776909 11.22477316 15.08165523 10.97265625 21.0234375 C10.19820118 26.75585263 7.81510772 30.17594372 3.4921875 33.9921875 C-2.24438691 38.14204984 -8.59578181 37.95921018 -15.4453125 37.1171875 C-20.31140009 34.98160047 -24.44273899 31.10044462 -26.8125 26.296875 C-28.48012507 20.55283308 -28.83936954 14.14400998 -26.3046875 8.640625 C-24.82873206 6.5665192 -23.29402369 4.86295422 -21.4453125 3.1171875 C-20.5996875 2.2921875 -19.7540625 1.4671875 -18.8828125 0.6171875 C-12.92162542 -1.98405777 -6.16483052 -2.22564169 0 0 Z " fill="#010101" transform="translate(264.4453125,459.8828125)"/>
<path d="M0 0 C1.09503845 -0.01283524 2.1900769 -0.02567047 3.31829834 -0.03889465 C5.08708344 -0.04997505 5.08708344 -0.04997505 6.89160156 -0.0612793 C8.1099469 -0.06935104 9.32829224 -0.07742279 10.58355713 -0.08573914 C13.16246116 -0.09956817 15.7413834 -0.1102956 18.3203125 -0.11816406 C22.25328456 -0.13537142 26.18541481 -0.17926971 30.11816406 -0.22338867 C32.62597039 -0.23351647 35.13378386 -0.2420323 37.64160156 -0.2487793 C38.8126947 -0.26628738 39.98378784 -0.28379547 41.19036865 -0.30183411 C48.1282722 -0.2835094 52.64078224 0.43043841 58.53222656 4.17700195 C62.17829724 7.85746953 62.76873807 10.78878008 62.92285156 15.79418945 C62.89644274 17.88048643 62.84900031 19.9666066 62.78222656 22.05200195 C62.76417969 23.12192383 62.74613281 24.1918457 62.72753906 25.29418945 C62.68061064 27.92218107 62.60887368 30.54970916 62.53222656 33.17700195 C59.23222656 33.17700195 55.93222656 33.17700195 52.53222656 33.17700195 C52.48324219 31.75645508 52.43425781 30.3359082 52.38378906 28.87231445 C52.3087672 27.01552339 52.23321912 25.15875354 52.15722656 23.30200195 C52.12628906 22.36485352 52.09535156 21.42770508 52.06347656 20.4621582 C52.02480469 19.56625977 51.98613281 18.67036133 51.94628906 17.74731445 C51.91486816 16.91989746 51.88344727 16.09248047 51.85107422 15.23999023 C51.70623519 12.9571411 51.70623519 12.9571411 49.53222656 11.17700195 C47.16074108 10.87055784 47.16074108 10.87055784 44.37988281 10.91821289 C42.76811157 10.90875641 42.76811157 10.90875641 41.1237793 10.89910889 C39.37689819 10.90518158 39.37689819 10.90518158 37.59472656 10.91137695 C36.40371338 10.9094635 35.2127002 10.90755005 33.9855957 10.90557861 C31.46370228 10.90421565 28.94180187 10.90791979 26.41992188 10.91625977 C22.54834308 10.92695742 18.67722834 10.9163679 14.80566406 10.90356445 C12.36035053 10.90488603 9.91503729 10.90744838 7.46972656 10.91137695 C6.30513916 10.90732849 5.14055176 10.90328003 3.94067383 10.89910889 C2.86615967 10.90541321 1.79164551 10.91171753 0.68457031 10.91821289 C-0.26426025 10.91980408 -1.21309082 10.92139526 -2.19067383 10.92303467 C-4.66625041 10.95923152 -4.66625041 10.95923152 -6.46777344 13.17700195 C-6.83729392 15.30560857 -6.83729392 15.30560857 -6.88183594 17.74731445 C-6.93984375 19.09116211 -6.93984375 19.09116211 -6.99902344 20.4621582 C-7.04542969 21.86788086 -7.04542969 21.86788086 -7.09277344 23.30200195 C-7.15078125 24.71932617 -7.15078125 24.71932617 -7.20996094 26.1652832 C-7.30438163 28.50219545 -7.38717241 30.83957225 -7.46777344 33.17700195 C-10.76777344 33.17700195 -14.06777344 33.17700195 -17.46777344 33.17700195 C-17.57598114 29.46788253 -17.65519621 25.7619374 -17.71777344 22.05200195 C-17.75128906 21.0052832 -17.78480469 19.95856445 -17.81933594 18.88012695 C-17.89853027 12.62377468 -17.6876276 8.92043061 -13.46777344 4.17700195 C-9.30288175 0.40256886 -5.48374268 0.05612588 0 0 Z " fill="#010101" transform="translate(233.4677734375,86.822998046875)"/>
<path d="M0 0 C34.98 0 69.96 0 106 0 C106 2.64 106 5.28 106 8 C71.02 8 36.04 8 0 8 C0 5.36 0 2.72 0 0 Z " fill="#15A7E1" transform="translate(203,291)"/>
<path d="M0 0 C1.07451416 -0.00637985 2.14902832 -0.0127597 3.25610352 -0.01933289 C4.42069092 -0.02044571 5.58527832 -0.02155853 6.78515625 -0.02270508 C7.97616943 -0.02603348 9.16718262 -0.02936188 10.39428711 -0.03279114 C12.91617445 -0.03786093 15.43806851 -0.04019945 17.95996094 -0.04003906 C21.8314917 -0.04222719 25.70273839 -0.06038717 29.57421875 -0.0793457 C32.01953027 -0.0822792 34.46484315 -0.08426429 36.91015625 -0.08520508 C38.07474365 -0.09239059 39.23933105 -0.09957611 40.43920898 -0.10697937 C42.05098022 -0.10236443 42.05098022 -0.10236443 43.6953125 -0.09765625 C44.64414307 -0.09908127 45.59297363 -0.10050629 46.57055664 -0.10197449 C48.84765625 0.14526367 48.84765625 0.14526367 50.84765625 2.14526367 C50.47265625 5.27026367 50.47265625 5.27026367 49.84765625 8.14526367 C42.58073297 8.19155917 35.31384137 8.2271186 28.04680061 8.24888802 C24.67258631 8.25933509 21.29847273 8.27351092 17.92431641 8.29614258 C14.04717307 8.32031252 10.17017348 8.33172878 6.29296875 8.34057617 C5.07835968 8.35089874 3.86375061 8.36122131 2.61233521 8.37185669 C1.49132416 8.37200775 0.37031311 8.37215881 -0.78466797 8.37231445 C-1.77506073 8.37675568 -2.76545349 8.3811969 -3.78585815 8.38577271 C-6.15234375 8.14526367 -6.15234375 8.14526367 -8.15234375 6.14526367 C-7.90234375 3.58276367 -7.90234375 3.58276367 -7.15234375 1.14526367 C-4.61650616 -0.12265512 -2.83857075 0.01140357 0 0 Z " fill="#C5C5C5" transform="translate(246.15234375,15.854736328125)"/>
<path d="M0 0 C2.09775542 1.20441471 3.77808217 2.4788557 5.5546875 4.1171875 C6.080625 4.59027344 6.6065625 5.06335938 7.1484375 5.55078125 C11.25745402 10.12776909 11.22477316 15.08165523 10.97265625 21.0234375 C10.19820118 26.75585263 7.81510772 30.17594372 3.4921875 33.9921875 C-2.24438691 38.14204984 -8.59578181 37.95921018 -15.4453125 37.1171875 C-20.31140009 34.98160047 -24.44273899 31.10044462 -26.8125 26.296875 C-28.48012507 20.55283308 -28.83936954 14.14400998 -26.3046875 8.640625 C-24.82873206 6.5665192 -23.29402369 4.86295422 -21.4453125 3.1171875 C-20.5996875 2.2921875 -19.7540625 1.4671875 -18.8828125 0.6171875 C-12.92162542 -1.98405777 -6.16483052 -2.22564169 0 0 Z M-22.4453125 10.1171875 C-24.41967462 14.06591174 -23.88360943 18.81335517 -23.4453125 23.1171875 C-21.93189253 26.5972809 -21.93189253 26.5972809 -19.4453125 29.1171875 C-18.7646875 29.9009375 -18.0840625 30.6846875 -17.3828125 31.4921875 C-12.8513254 33.9989676 -8.50788586 33.7433278 -3.4453125 33.1171875 C1.2891191 31.20326834 4.28153143 27.66349964 6.5546875 23.1171875 C7.1519666 18.55820907 7.59929865 14.04308298 5.35546875 9.90625 C2.12384449 6.04783715 -0.90840416 3.56232825 -5.9609375 2.67578125 C-13.61421023 2.3368506 -17.49956771 4.27221639 -22.4453125 10.1171875 Z " fill="#BCBCBC" transform="translate(264.4453125,459.8828125)"/>
<path d="M0 0 C3.53494505 0.9336246 4.94397547 2.52143196 6.9375 5.51171875 C7.69358333 8.37444649 7.74894575 10.65727127 6.9375 13.51171875 C4.06027073 16.79998078 2.16585983 18.26103307 -2.125 19.13671875 C-6.18089195 18.27376302 -7.60046371 16.81788177 -10.0625 13.51171875 C-11.1875 10.07421875 -11.1875 10.07421875 -11.0625 6.51171875 C-8.2164831 1.46233393 -5.69622849 -0.48547402 0 0 Z " fill="#F8FCFE" transform="translate(283.0625,141.48828125)"/>
<path d="M0 0 C2.875 1.5625 2.875 1.5625 5 4 C6.14009771 7.91908586 6.40888632 10.03158504 4.8125 13.8125 C2.85980888 16.16919618 1.94024566 17.18326509 -1 18 C-4.78825503 17.86470518 -7.23184073 17.49240979 -10.4375 15.4375 C-12.25759307 12.59815481 -12.63409202 10.33922437 -12.4453125 6.97265625 C-10.97112337 0.44225703 -5.94328138 -0.95517022 0 0 Z " fill="#F9FCFE" transform="translate(234,142)"/>
<path d="M0 0 C2.625 0.375 2.625 0.375 5 1 C6.125 5.75 6.125 5.75 5 8 C3.02 8 1.04 8 -1 8 C-1.625 5.125 -1.625 5.125 -2 2 C-1.34 1.34 -0.68 0.68 0 0 Z " fill="#BFBFBF" transform="translate(217,16)"/>
</svg>
